<?xml version="1.0" encoding="utf-8"?>
<!-- Generator: Adobe Illustrator 26.0.1, SVG Export Plug-In . SVG Version: 6.00 Build 0)  -->
<svg version="1.1" id="Camada_1" xmlns="http://www.w3.org/2000/svg" xmlns:xlink="http://www.w3.org/1999/xlink" x="0px" y="0px"
	 viewBox="0 0 144 144" style="enable-background:new 0 0 144 144;" xml:space="preserve">
<style type="text/css">
	.st0{fill:#0075E7;}
	.st1{fill:#000B93;}
</style>
<g id="Grupo_1377" transform="translate(9.824 8.704)">
	<circle id="Elipse_381" class="st0" cx="23.18" cy="119.25" r="16.52"/>
	<path id="Caminho_6158" class="st1" d="M97.68,47.01H45.26c-3.07,0-5.56-2.49-5.56-5.56V29.9c0-3.07,2.49-5.56,5.56-5.56l0,0h46.07
		C82.21,18.68,79.4,6.7,85.06-2.42c1.58-2.55,3.73-4.7,6.28-6.28H27.06C15.79-8.7,6.65,0.44,6.65,11.71v47.93
		c0,11.27,9.14,20.41,20.41,20.41h52.43c3.07,0,5.56,2.49,5.56,5.56v11.55c0,3.07-2.49,5.56-5.56,5.56l0,0H33.41
		c9.12,5.66,11.93,17.63,6.28,26.76c-1.58,2.55-3.73,4.7-6.28,6.28h64.27c11.27,0,20.41-9.14,20.41-20.41V67.42
		C118.09,56.15,108.95,47.01,97.68,47.01z"/>
	<circle id="Elipse_382" class="st0" cx="101.57" cy="7.82" r="16.52"/>
</g>
</svg>
